<mxfile host="app.diagrams.net" modified="2023-08-26T09:00:15.701Z" agent="Mozilla/5.0 (Windows NT 10.0; Win64; x64) AppleWebKit/537.36 (KHTML, like Gecko) Chrome/113.0.0.0 Safari/537.36 Edg/113.0.1774.42" etag="6TopSrwPCMcqlkSfK7YI" version="21.6.9" type="github">
  <diagram name="第 1 页" id="Ejtv8riRzpzASjyr7Cp5">
    <mxGraphModel dx="992" dy="626" grid="1" gridSize="10" guides="1" tooltips="1" connect="1" arrows="1" fold="1" page="1" pageScale="1" pageWidth="827" pageHeight="1169" math="0" shadow="0">
      <root>
        <mxCell id="0" />
        <mxCell id="1" parent="0" />
        <mxCell id="5cuuSmDx4ee5CAOj9_-S-4" style="edgeStyle=orthogonalEdgeStyle;rounded=0;orthogonalLoop=1;jettySize=auto;html=1;exitX=0.5;exitY=1;exitDx=0;exitDy=0;entryX=0.5;entryY=0;entryDx=0;entryDy=0;" edge="1" parent="1" source="5cuuSmDx4ee5CAOj9_-S-2" target="5cuuSmDx4ee5CAOj9_-S-3">
          <mxGeometry relative="1" as="geometry" />
        </mxCell>
        <mxCell id="5cuuSmDx4ee5CAOj9_-S-2" value="" style="rounded=0;whiteSpace=wrap;html=1;" vertex="1" parent="1">
          <mxGeometry x="240" y="110" width="120" height="60" as="geometry" />
        </mxCell>
        <mxCell id="5cuuSmDx4ee5CAOj9_-S-5" style="edgeStyle=orthogonalEdgeStyle;rounded=0;orthogonalLoop=1;jettySize=auto;html=1;exitX=0.75;exitY=1;exitDx=0;exitDy=0;entryX=1;entryY=0.5;entryDx=0;entryDy=0;" edge="1" parent="1" source="5cuuSmDx4ee5CAOj9_-S-3" target="5cuuSmDx4ee5CAOj9_-S-2">
          <mxGeometry relative="1" as="geometry" />
        </mxCell>
        <mxCell id="5cuuSmDx4ee5CAOj9_-S-3" value="" style="rounded=0;whiteSpace=wrap;html=1;" vertex="1" parent="1">
          <mxGeometry x="240" y="240" width="120" height="60" as="geometry" />
        </mxCell>
      </root>
    </mxGraphModel>
  </diagram>
</mxfile>
